#N canvas 40 395 450 300 12;
#X obj 244 159 netreceive;
#X obj 157 159 netreceive;
#X obj 60 158 netreceive;
#X msg 60 126 listen 9999;
#X msg 165 131 listen 9998;
#X msg 264 130 listen 9997;
#X obj 232 77 bng 15 250 50 0 empty empty empty 17 7 0 10 -262144 -1
-1;
#X connect 3 0 2 0;
#X connect 4 0 1 0;
#X connect 5 0 0 0;
#X connect 6 0 3 0;
#X connect 6 0 4 0;
#X connect 6 0 5 0;
