#N canvas 57 90 272 591 12;
#X obj 19 526 netsend -u -b;
#X msg 19 502 connect localhost 8000;
#X obj 19 452 list prepend send;
#X obj 19 476 list trim;
#X obj 19 61 netreceive -u -b;
#X msg 19 35 listen 9100;
#X obj 19 85 oscparse;
#X obj 19 110 list trim;
#X obj 19 134 route lastmarker;
#X obj 19 158 route number;
#X obj 19 182 route str;
#X obj 19 427 oscformat -f i action;
#X msg 19 401 40161;
#X text 62 399 jump to marker 1;
#X obj 19 255 list fromsymbol;
#X obj 19 205 list prepend symbol;
#X obj 19 230 list trim;
#X obj 19 281 sel 50;
#X obj 19 305 print received;
#X text 69 280 marker nr 2 (ascii);
#X msg 19 377 1007;
#X text 57 377 play;
#X msg 19 353 1008;
#X text 57 351 pause;
#X msg 19 328 1016;
#X text 54 329 stop;
#X connect 1 0 0 0;
#X connect 2 0 3 0;
#X connect 3 0 0 0;
#X connect 4 0 6 0;
#X connect 5 0 4 0;
#X connect 6 0 7 0;
#X connect 7 0 8 0;
#X connect 8 0 9 0;
#X connect 9 0 10 0;
#X connect 10 0 15 0;
#X connect 11 0 2 0;
#X connect 12 0 11 0;
#X connect 14 0 17 0;
#X connect 15 0 16 0;
#X connect 16 0 14 0;
#X connect 17 0 18 0;
#X connect 17 0 12 0;
#X connect 20 0 11 0;
#X connect 22 0 11 0;
#X connect 24 0 11 0;
