#N canvas 86 70 578 643 12;
#X obj 64 127 sel 1;
#X obj 63 88 tgl 15 0 empty empty empty 17 7 0 10 -262144 -1 -1 0 1
;
#X obj 71 51 r \$1-isconnected;
#X obj 273 229 symbol \$1;
#X msg 22 246 \; \$1-canvas label Connected \;;
#X msg 17 290 \; \$1-canvas color 16 \;;
#X msg 19 337 \; \$1-canvas label_pos 13 15 \;;
#X msg 271 265 \; \$1-canvas label Disonnected \;;
#X msg 273 312 \; \$1-canvas color 13 \;;
#X msg 267 362 \; \$1-canvas label_pos 6 15 \;;
#X obj 221 56 loadbang;
#X msg 221 80 0;
#X obj 20 206 symbol \$1;
#X obj 96 152 t b;
#X connect 0 0 12 0;
#X connect 0 1 13 0;
#X connect 1 0 0 0;
#X connect 2 0 1 0;
#X connect 3 0 7 0;
#X connect 3 0 8 0;
#X connect 3 0 9 0;
#X connect 10 0 11 0;
#X connect 11 0 0 0;
#X connect 12 0 4 0;
#X connect 12 0 5 0;
#X connect 12 0 6 0;
#X connect 13 0 3 0;
